<?xml version="1.0" encoding="UTF-8" standalone="no"?>
<!-- Created with Inkscape (http://www.inkscape.org/) -->

<svg
   xmlns:dc="http://purl.org/dc/elements/1.1/"
   xmlns:cc="http://creativecommons.org/ns#"
   xmlns:rdf="http://www.w3.org/1999/02/22-rdf-syntax-ns#"
   xmlns:svg="http://www.w3.org/2000/svg"
   xmlns="http://www.w3.org/2000/svg"
   version="1.1"
   width="600"
   height="600"
   id="svg2">
  <defs
     id="defs4" />
  <metadata
     id="metadata7">
    <rdf:RDF>
      <cc:Work
         rdf:about="">
        <dc:format>image/svg+xml</dc:format>
        <dc:type
           rdf:resource="http://purl.org/dc/dcmitype/StillImage" />
        <dc:title></dc:title>
      </cc:Work>
    </rdf:RDF>
  </metadata>
  <g
     transform="translate(-89.260488,-210.82741)"
     id="layer1">
    <path
       d="m 689.26049,210.84826 0,443.50834 0,156.47081 -157.67925,0 -442.320752,0 0,-600 z"
       id="rect3934-3-8-6-0-7-8-5-2-1-2-1-5-4-2"
       style="fill:red;fill-opacity:1;fill-rule:nonzero;stroke:none" />
    <rect
       width="468.6059"
       height="95.045113"
       rx="0"
       x="276.51294"
       y="-499.03934"
       transform="matrix(0,1,-1,0,0,0)"
       id="rect4561-9-2"
       style="fill:white;fill-opacity:1;fill-rule:nonzero;stroke:none" />
    <rect
       width="468.58035"
       height="95.04512"
       rx="0"
       x="276.51294"
       y="-374.52676"
       transform="matrix(0,1,-1,0,0,0)"
       id="rect4561-9-8-8"
       style="fill:white;fill-opacity:1;fill-rule:nonzero;stroke:none" />
    <rect
       width="468.52072"
       height="95.04512"
       rx="0"
       x="276.59811"
       y="-250.01419"
       transform="matrix(0,1,-1,0,0,0)"
       id="rect4561-9-6-6"
       style="fill:white;fill-opacity:1;fill-rule:nonzero;stroke:none" />
    <rect
       width="95.045074"
       height="94.078163"
       rx="0"
       x="-623.55188"
       y="-370.59109"
       transform="scale(-1,-1)"
       id="rect4561-9-2-0"
       style="fill:white;fill-opacity:1;fill-rule:nonzero;stroke:none" />
    <rect
       width="95.045074"
       height="94.078163"
       rx="0"
       x="-623.55188"
       y="-745.11884"
       transform="scale(-1,-1)"
       id="rect4561-9-2-0-4"
       style="fill:white;fill-opacity:1;fill-rule:nonzero;stroke:none" />
  </g>
</svg>
